<svg width="155" height="175" viewBox="0 0 155 175" fill="none" xmlns="http://www.w3.org/2000/svg">
<path d="M98.443 33.7257H57.8008C57.8008 16.3875 71.7158 2.32687 88.8744 2.32687H129.517C129.517 19.665 115.602 33.7257 98.443 33.7257Z" fill="#B4D629"/>
<path d="M26.7266 97.9656V0C43.8852 0 57.8002 14.0606 57.8002 31.3988V129.364C40.6416 129.364 26.7266 115.304 26.7266 97.9656Z" fill="white"/>
<path d="M92.9927 81.8727H61.1406C61.1406 64.5345 75.0556 50.4739 92.2142 50.4739H124.066C124.034 67.8121 110.151 81.8727 92.9927 81.8727Z" fill="white"/>
<path d="M98.4431 129.364H61.1094C61.1094 112.026 75.0244 97.9655 92.183 97.9655H129.517C129.517 115.304 115.602 129.364 98.4431 129.364Z" fill="white"/>
<path d="M46.0245 157.977C47.03 156.929 48.2301 156.404 49.6573 156.404H64.4481V164.303C64.4481 165.745 63.9291 166.991 62.9236 168.039C61.9181 169.088 60.718 169.58 59.2908 169.58H48.5869V174.496H44.5V161.681C44.5324 160.239 45.019 158.993 46.0245 157.977ZM49.6573 160.534C49.3654 160.534 49.1383 160.665 48.9113 160.894C48.7167 161.091 48.6194 161.353 48.6194 161.681V165.45H59.3232C59.5827 165.45 59.8422 165.319 60.0692 165.09C60.2639 164.893 60.3612 164.631 60.3612 164.27V160.501H49.6573V160.534Z" fill="white"/>
<path d="M68.3098 161.779C68.3098 160.272 68.8288 159.026 69.8343 158.01C70.8722 156.929 72.1048 156.404 73.4995 156.404H87.9659V169.121C87.9659 170.629 87.447 171.874 86.4415 172.89C85.4035 173.972 84.1709 174.496 82.7762 174.496H73.4671C72.0723 174.496 70.8398 173.972 69.8018 172.89C68.7963 171.874 68.2773 170.629 68.2773 169.121V161.779H68.3098ZM72.3643 169.383C72.3643 169.645 72.4616 169.875 72.6886 170.104C72.8832 170.301 73.1427 170.366 73.4671 170.366H74.7321H81.5436H82.8086C83.133 170.366 83.3925 170.268 83.5871 170.104C83.8141 169.875 83.9115 169.645 83.9115 169.383V160.534H74.7645H73.4995C73.1752 160.534 72.9157 160.632 72.7211 160.796C72.494 161.026 72.3967 161.255 72.3967 161.517V169.383H72.3643Z" fill="white"/>
<path d="M92.0195 169.219V156.404H96.1389V169.252C96.1389 169.547 96.2362 169.809 96.4632 170.006C96.6903 170.203 96.9173 170.334 97.2093 170.334H101.75V156.372H105.837V170.334H111.416V156.372H115.536V174.431H97.2093C95.7821 174.431 94.5495 173.906 93.544 172.89C92.5385 171.907 92.0195 170.694 92.0195 169.219Z" fill="white"/>
<path d="M34.7035 156.404H30.6166H27.2757C25.8485 156.404 24.6159 156.929 23.6104 157.977C22.5725 159.026 22.0859 160.272 22.0859 161.681V174.496H26.1729V168.793V164.664V161.648C26.1729 161.353 26.3026 161.091 26.5297 160.862C26.7567 160.632 27.0162 160.501 27.3081 160.501H30.6166C32.8547 160.534 34.7035 158.666 34.7035 156.404Z" fill="white"/>
<path d="M153.906 158.567C154.296 157.945 154.523 157.191 154.523 156.404H150.436H147.127C145.7 156.404 144.468 156.929 143.462 157.977C142.424 159.026 141.938 160.272 141.938 161.681V174.496H146.024V168.793V164.664V161.648C146.024 161.353 146.154 161.091 146.381 160.862C146.608 160.632 146.868 160.501 147.16 160.501H150.468C150.533 160.501 150.598 160.468 150.663 160.468H150.468C151.895 160.501 153.16 159.714 153.906 158.567Z" fill="white"/>
<path d="M14.0447 167.515C16.3153 167.515 18.1641 165.647 18.1641 163.353V160.534V156.404H0V169.121C0 170.629 0.518975 171.874 1.52449 172.89C2.59487 173.972 3.795 174.496 5.18975 174.496H14.0772C16.3153 174.496 18.1317 172.661 18.1317 170.366H14.0447H5.18975C4.86539 170.366 4.6059 170.268 4.41128 170.104C4.18423 169.875 4.08692 169.645 4.08692 169.383V167.515H14.0447ZM4.08692 160.534H14.0447V163.385H4.08692V160.534Z" fill="white"/>
<path d="M138.081 170.366H133.994H125.107C124.782 170.366 124.523 170.268 124.328 170.104C124.101 169.875 124.004 169.645 124.004 169.383V167.515H133.962C136.232 167.515 138.081 165.647 138.081 163.353V160.534V156.404H119.949V169.121C119.949 170.629 120.468 171.874 121.474 172.89C122.544 173.972 123.744 174.496 125.139 174.496H134.026C136.264 174.463 138.081 172.628 138.081 170.366ZM124.004 160.534H133.962V163.385H124.004V160.534Z" fill="white"/>
</svg>
